<?xml version="1.0" encoding="utf-8"?>
<!-- Generator: Adobe Illustrator 16.0.0, SVG Export Plug-In . SVG Version: 6.00 Build 0)  -->
<!DOCTYPE svg PUBLIC "-//W3C//DTD SVG 1.1//EN" "http://www.w3.org/Graphics/SVG/1.1/DTD/svg11.dtd">
<svg version="1.1" id="Camada_1" xmlns="http://www.w3.org/2000/svg" xmlns:xlink="http://www.w3.org/1999/xlink" x="0px" y="0px"
	 width="659px" height="349px" viewBox="0 0 659 349" enable-background="new 0 0 659 349" xml:space="preserve">
<g id="_x23_f2ede7ff">
	<path fill="#F2EDE7" d="M174.83,158.81c10.649-15.47,27.29-26.24,45.29-31.12c3.43-0.74,7.5-0.42,10.08,2.2
		c2.449,2.4,4.3,5.31,6.359,8.03c-1.92,11.74-7.2,22.6-12.91,32.91c-1.449,2.42-2.62,5.35-5.409,6.51
		c0.18,0.32,0.529,0.971,0.71,1.29c-8.12,12.03-17.511,23.63-29.91,31.44c-7.04,4.33-15.95,6.75-23.96,3.689
		c-3.011-0.71-3.03-4.39-3.431-6.85C160.28,189.99,165.33,172.8,174.83,158.81z"/>
	<path fill="#F2EDE7" d="M69.27,176.67c11.84-14.8,23.61-29.67,35.5-44.43c-3.91,13.79-7.859,27.57-11.93,41.32
		C84.97,174.48,77.13,175.63,69.27,176.67z"/>
	<path fill="#F2EDE7" d="M545.24,188.28c2.021-0.75,5.2-0.16,4.721,2.64c-0.75,9.09-5.931,17.439-12.761,23.311
		c-2.79,2.56-6.449,4.42-10.3,4.279c-2.33-0.58-2.229-3.729-1.83-5.6c1.48-7.25,5.87-13.65,11.28-18.57
		C539.02,191.95,541.73,189.33,545.24,188.28z"/>
	<path fill="#F2EDE7" d="M347.22,190.37c0.3-0.03,0.88-0.101,1.18-0.14c-5.22,7.689-10.62,15.359-17.07,22.069
		c-3.449,3.63-8.069,6.25-13.119,6.63c0.81-6.25,4.39-12.08,9.079-16.17C334.22,199.15,340.56,194.47,347.22,190.37z"/>
	<path fill="#F2EDE7" d="M337.35,246.12c1.55,0.2,3.67-0.15,4,1.93c-0.43,1.931-2.48,1.64-3.97,1.851
		C337.36,248.641,337.35,247.38,337.35,246.12z"/>
	<path fill="#F2EDE7" d="M494.32,251.15c1.48-1.84,4.351-1.931,4.931,0.74C497.6,252.32,495.52,252.72,494.32,251.15z"/>
	<path fill="#F2EDE7" d="M362.47,251.29c0.63-0.47,1.899-1.42,2.53-1.899c0.789,0.76,2.909,1.469,1.68,2.829
		C365.22,252.359,363.6,252.38,362.47,251.29z"/>
	<path fill="#F2EDE7" d="M416.77,250.84c3.88-2.41,5.23,5.32,1.29,5.1C415.71,255.359,416.789,252.54,416.77,250.84z"/>
	<path fill="#F2EDE7" d="M432.369,250.311c3.91-1.451,5.101,5.17,1.57,6.1C430.84,255.88,431.34,252.4,432.369,250.311z"/>
	<path fill="#F2EDE7" d="M479.8,250.72c3.47-1.659,5.08,3.87,2.12,5.29C478.92,256.12,479.56,252.65,479.8,250.72z"/>
	<path fill="#F2EDE7" d="M533.47,252.28c0.47-0.86,0.24-2.44,1.649-2.421c1.12-0.649,3.521,1.041,2.41,2.25
		C536.18,252.26,534.82,252.25,533.47,252.28z"/>
	<path fill="#F2EDE7" d="M597.97,256.391c-2.78-1.15-2.351-5.381,0.16-6.58C601.329,250.51,601.48,256.18,597.97,256.391z"/>
	<path fill="#F2EDE7" d="M401.82,254.87c1.181-0.72,2.54-1.03,3.851-1.45c-0.15,1.46-0.62,3.439-2.521,3.27
		C401.88,257.03,401.05,255.87,401.82,254.87z"/>
	<path fill="#F2EDE7" d="M457.11,256.77c-0.57-2.6,2.24-2.689,3.97-3.39C461.24,255.84,459.409,257.07,457.11,256.77z"/>
</g>
<g id="_x23_1f1a17ff">
	<path fill="#1F1A17" d="M440.99,31.66c8.61-5.46,16.94-11.4,25.71-16.59c-8.37,7.28-16.489,14.85-24.72,22.29
		c-3.83,3.12-8.08,5.63-12.19,8.34c-65.09,42.64-130.17,85.27-195.26,127.9c-5.609,3.75-11.35,7.291-16.85,11.19
		c9.92-0.39,19.8-1.28,29.68-2.229l0.24,0.569c-10.67,17.851-25.62,33.59-44.05,43.479c-7.57,4.011-15.89,6.781-24.48,7.341
		c-9.399,0.92-18.76-1.771-27.27-5.57c-8.46-3.69-14.84-11.42-17.25-20.29c-3.38-13,0.26-26.72,6.04-38.48
		c10.979-21.87,29.14-40.13,50.91-51.28c11.66-5.52,24.95-10.07,37.92-6.9c17.399,4.29,30.39,21.45,29.859,39.37
		C319.75,110.94,380.449,71.42,440.99,31.66 M174.83,158.81c-9.5,13.99-14.551,31.18-13.181,48.1c0.4,2.46,0.42,6.14,3.431,6.85
		c8.01,3.061,16.92,0.641,23.96-3.689c12.399-7.811,21.79-19.41,29.91-31.44c-0.181-0.319-0.53-0.97-0.71-1.29
		c2.789-1.16,3.96-4.09,5.409-6.51c5.71-10.31,10.99-21.17,12.91-32.91c-2.06-2.72-3.91-5.63-6.359-8.03
		c-2.58-2.62-6.65-2.94-10.08-2.2C202.12,132.57,185.48,143.34,174.83,158.81z"/>
	<path fill="#1F1A17" d="M113.21,108.99c2.92,0.3,5.77,1.17,8.71,1.33c2.53-0.36,5.05-0.9,7.63-0.94
		c-7.54,40-15.5,79.931-23.22,119.89c-6.051,0.73-12.09,1.511-18.09,2.53c-2.41-4.94-4.301-10.29-4.19-15.85
		c0.14-8.5,3.49-16.46,5.55-24.591c-11.399,1.4-22.359,5.181-33.79,6.41c-2.83,4.211-5.31,8.65-8.42,12.67
		c-7.03,9.57-14.06,19.701-24.29,26.131c-2.33-3.25-5.76-5.42-8.359-8.4c-1.16-3.35-0.03-7.01,1.319-10.12
		c4.15-8.22,10.36-15.18,14.96-23.12c0.5-3.58-2.75-6.17-4.54-8.92c5.29-1.1,10.92-1.4,15.891-3.58
		c5.05-6.859,10.43-13.49,16.29-19.68C69.28,151.3,79.64,139.6,90.42,128.29C97.22,120.98,104.71,114.28,113.21,108.99
		 M69.27,176.67c7.86-1.04,15.7-2.19,23.57-3.11c4.07-13.75,8.02-27.53,11.93-41.32C92.88,147,81.11,161.87,69.27,176.67z"/>
	<path fill="#1F1A17" d="M414.4,145.77c-31.5,1.1-62.979,2.72-94.49,3.82c3.801-3.44,7.33-7.23,11.58-10.13 M307.63,213.7
		c3.68-9.2,10.59-16.771,18.199-22.931c8.061-6.64,18.33-10.779,28.9-9.939c0.72-0.71,1.44-1.41,2.16-2.12 M331.49,139.46
		c33.91-1.08,67.811-2.84,101.721-4.11c-22.62,14.87-45.61,29.18-68.4,43.8c-0.36,1.119-0.73,2.24-1.3,3.27
		c-7.851,14.54-15.57,29.141-23.36,43.71c-0.64,1.75-2.49,0.8-3.76,0.57c-2.29-0.75-4.61,0.479-6.91,0.62
		c0.38-2.311,1.6-4.32,2.771-6.301c-3.461,2.561-7.32,4.61-11.431,5.9c-3.87,1.2-8.17,0.02-11.37-2.311
		c-2.55-2-2.489-5.59-2.34-8.51 M347.78,189.84l-1.62-0.57c-5.939,1.45-10.859,5.5-15.37,9.461c-1.26,1.199-3.819,1.85-3.5,4.029
		c-4.689,4.09-8.27,9.92-9.079,16.17c5.05-0.38,9.67-3,13.119-6.63c6.45-6.71,11.851-14.38,17.07-22.069l0.2-0.021
		c-0.061-0.53-0.17-1.59-0.23-2.12C348.23,188.53,347.93,189.41,347.78,189.84z"/>
	<path fill="#1F1A17" d="M497.26,158.09c3.27-1.74,7.24-1.47,10.569-0.01c-3.51,6.12-7.31,12.07-10.79,18.22
		c5.091-0.159,10.17-0.53,15.261-0.61c-0.521,1.67-1.4,3.16-2.61,4.42c-0.13,1.08-0.26,2.171-0.37,3.261
		c-5.74,0.33-11.5,0.66-17.189,1.5c-8.91,14.6-17.23,29.55-25.95,44.25c-2.63-0.69-3.49-3.42-5.34-5.04
		c-1.551-0.4-3.12-0.66-4.67-0.98c6.52-13.43,15.449-25.449,23.35-38.069c-4.92,0.22-9.81,0.739-14.72,0.96
		c0.56-1.28,1.1-2.57,1.609-3.87c-0.56-1.07-2.27-3.41-0.27-4c6.21-1.351,12.64-1.29,18.95-1.97
		C489.1,170.09,493.159,164.07,497.26,158.09z"/>
	<path fill="#1F1A17" d="M544.48,178.689c7.36-2.18,15.69,2.771,17.37,10.211c0.51,6.08-2.15,11.84-4.78,17.17
		c-4.53,8.609-11.12,16.85-20.439,20.47c-5.851,2.38-12.551,1.04-17.66-2.41c-3.88-2.61-5.681-7.569-5.11-12.11
		c0.82-8.109,5.54-15.279,11.09-21.01C530.44,185.55,537.07,181.04,544.48,178.689 M545.24,188.28c-3.51,1.05-6.22,3.67-8.89,6.06
		c-5.41,4.92-9.8,11.32-11.28,18.57c-0.399,1.87-0.5,5.02,1.83,5.6c3.851,0.141,7.51-1.72,10.3-4.279
		c6.83-5.871,12.011-14.221,12.761-23.311C550.44,188.12,547.26,187.53,545.24,188.28z"/>
	<path fill="#1F1A17" d="M398.78,179.54c1.471-0.56,2.82,0.979,4.17,1.42c1.71-0.351,3.431-0.64,5.17-0.88
		c-0.239,2.561-1.79,4.65-3.149,6.73c5.49-2.91,11.45-7.011,17.97-5.341c3.84,0.811,6.91,4.521,6.25,8.55
		c-1.05,7.4-5.54,13.65-9.229,19.95c-3.471,5.45-6.33,11.261-9.841,16.681c-2.56-1.851-5.54-2.811-8.59-3.42
		c0.681-6.65,4.84-12.121,7.75-17.931c2.86-5.71,7.021-10.83,8.73-17.06c-9.05,2.85-15.601,10.3-21.601,17.26
		c-3.989,7.24-7.92,14.57-12.77,21.3c-1.16,0.931-2.55-0.35-3.28-1.22c-1.439-1.91-3.89-2.4-5.92-3.43
		c4.97-9.74,10.6-19.12,16.11-28.551C393.3,188.92,395.539,183.91,398.78,179.54z"/>
	<path fill="#1F1A17" d="M603.77,182.891c8.61-3.041,18.15-5.181,27.14-2.48c2.851,0.65,5.051,2.689,6.94,4.81
		c1.86,1.57,0.52,4.13,0.41,6.14c-4.221,3.841-9.4,7.211-15.34,6.99c-2.391-0.939-3.11-4.92-1.431-6.77
		c2.37-1.35,5.05-2.01,7.57-3.04c-7.75-1.649-16.45-1.12-22.95,3.819c0.37,1.57,0.891,3.211,2.33,4.15
		c5.271,3.87,11.76,5.91,16.62,10.37c2.94,2.62,1.99,7.15-0.63,9.61c-6.811,6.47-16.17,9.74-25.46,10.199
		c-5.83,0.28-12.47,0.58-17.19-3.459c-3.59-2.82-3.29-8.621-0.22-11.7c2.96-3.011,7.17-5.05,11.44-4.95
		c2.529-0.01,4.329,1.92,5.689,3.83c-1.9,0.92-3.92,1.57-5.75,2.59c-1.76,1.12-1.79,3.33-2.09,5.16c3.77,1.24,7.82,0.42,11.58-0.49
		c3.7-1.05,7.63-2.029,10.66-4.54c1.66-1.149,0.66-3.59-0.771-4.44c-5.09-3.069-10.819-4.979-15.76-8.31
		c-2.44-1.55-4.4-4.399-3.74-7.399C593.86,187.65,599.17,184.78,603.77,182.891z"/>
	<path fill="#1F1A17" d="M263.3,214.21C263.72,214.8,263.72,214.8,263.3,214.21z"/>
	<path fill="#1F1A17" d="M248.82,227.01c0.15-0.189,0.46-0.57,0.61-0.76l-0.18,0.439L248.82,227.01z"/>
	<path fill="#1F1A17" d="M247.91,227.82c0.229-0.2,0.68-0.601,0.909-0.811C248.59,227.22,248.14,227.62,247.91,227.82z"/>
	<path fill="#1F1A17" d="M247.17,228.32c0.189-0.12,0.56-0.37,0.74-0.5C247.73,227.95,247.36,228.2,247.17,228.32z"/>
	<path fill="#1F1A17" d="M232.85,240.88c0.141-0.16,0.42-0.46,0.561-0.61C233.27,240.42,232.99,240.72,232.85,240.88z"/>
	<path fill="#1F1A17" d="M232.22,241.35c0.16-0.119,0.47-0.359,0.63-0.47C232.69,240.99,232.38,241.23,232.22,241.35z"/>
	<path fill="#1F1A17" d="M332.35,243.109c3.5-0.209,7.06-0.479,10.53,0.211c3.35,0.77,3.85,5.31,2.159,7.8
		c-1.92,2.229-5.1,1.8-7.71,2.03c0.021,1.97,0.021,3.949,0.011,5.93c-1.681-0.061-3.34-0.11-5.011-0.141
		C332.43,253.66,332.39,248.38,332.35,243.109 M337.35,246.12c0,1.26,0.01,2.521,0.03,3.78c1.489-0.211,3.54,0.08,3.97-1.851
		C341.02,245.97,338.9,246.32,337.35,246.12z"/>
	<path fill="#1F1A17" d="M388.659,245.15c1.391-0.76,2.811-1.471,4.23-2.16c0,1.41,0,2.83-0.01,4.26
		c0.64,0.061,1.909,0.189,2.55,0.26c-0.021,0.75-0.05,2.26-0.07,3.01c-3.51-0.959-2.43,3.141-2.31,5.17
		c0.569,0.141,1.7,0.44,2.27,0.58c0.05,0.69,0.16,2.08,0.22,2.771c-2.01,0.01-4.279,0.66-6.06-0.58c-1.61-1.979-0.79-4.72-1.01-7.06
		C385.039,249.85,388.159,247.34,388.659,245.15z"/>
	<path fill="#1F1A17" d="M420.34,242.99c1.5-0.051,3-0.08,4.51-0.1c0.03,5.379,0,10.76,0,16.14c-1.39-0.011-2.771-0.011-4.15-0.021
		c-0.01-0.42-0.029-1.27-0.05-1.699c-1.6,2.039-4.78,2.75-6.77,0.83c-2.101-2.41-2.36-6.211-0.811-8.961
		c1.561-2.55,5.11-2.33,7.37-0.89C420.39,246.52,420.36,244.75,420.34,242.99 M416.77,250.84c0.02,1.7-1.06,4.52,1.29,5.1
		C422,256.16,420.65,248.43,416.77,250.84z"/>
	<path fill="#1F1A17" d="M483.329,243.07c1.511-0.09,3.03-0.15,4.561-0.18c0.01,5.39,0,10.77-0.03,16.159
		c-1.55-0.37-4.38,0.771-4.42-1.62c-1.63,2.26-4.47,2.04-6.7,0.9c-1.67-2.9-2.55-6.96-0.16-9.721c1.761-2.069,4.771-1.529,6.87-0.34
		C483.4,246.53,483.369,244.8,483.329,243.07 M479.8,250.72c-0.24,1.931-0.88,5.4,2.12,5.29
		C484.88,254.59,483.27,249.061,479.8,250.72z"/>
	<path fill="#1F1A17" d="M513.32,247.891c-0.2-6.921,12.561-7.171,13.48-0.521c-1.05,0.1-3.16,0.28-4.221,0.38
		c-0.619-2.04-5.329-3.32-4.38-0.13c2.62,1.09,5.79,1.14,7.95,3.16c2.14,2.37,0.91,6.47-1.91,7.659
		c-4.27,1.86-11.18,0.91-11.66-4.75c1.53-0.09,3.07-0.17,4.62-0.229c0.16,3.01,5.7,3.75,5.16,0.32
		C519.53,251.6,514.02,252.29,513.32,247.891z"/>
	<path fill="#1F1A17" d="M569.789,246.03c-0.01-1.03-0.029-2.061-0.02-3.091c1.47-0.01,2.95-0.02,4.44-0.029
		c0,1.029,0,2.07,0.01,3.109C572.74,246.02,571.26,246.02,569.789,246.03z"/>
	<path fill="#1F1A17" d="M352.48,248.891c1.31-1.521,3.22-2.141,5.12-1.311c-0.3,0.76-0.89,2.279-1.19,3.04
		c-0.64,0-1.93,0.021-2.58,0.03c-1.09,2.649-0.979,5.539-0.96,8.35c-1.479,0.02-2.949,0.03-4.42,0.061
		c-0.04-3.881-0.02-7.771-0.02-11.65c1-0.01,3-0.04,4.01-0.051L352.48,248.891z"/>
	<path fill="#1F1A17" d="M361.68,247.72c2.729-0.88,6.21-0.92,8.399,1.19c1.471,1.39,1.351,3.56,1.73,5.39
		c-2.98,0-5.96-0.03-8.93-0.02c-0.021,1.34,1.199,2.81,2.63,2.18c1.899-1.01,3.99-0.771,6.029-0.43
		c-2.159,3.38-6.75,3.92-10.239,2.54C357.05,256.62,357.23,249.32,361.68,247.72 M362.47,251.29c1.13,1.09,2.75,1.069,4.21,0.93
		c1.229-1.36-0.891-2.069-1.68-2.829C364.369,249.87,363.1,250.82,362.47,251.29z"/>
	<path fill="#1F1A17" d="M376.39,247.45c2.97-0.57,7.36-0.771,8.51,2.81c-0.96,0.061-2.87,0.18-3.83,0.24
		c-1.25-1.18-2.819-1.26-4-0.02c2.271,1.14,5.03,1,7.181,2.33c2.369,1.949,0.64,5.739-2.131,6.109c-3.029,0.65-8.34,0.82-8.909-3.2
		c0.989-0.069,2.979-0.22,3.97-0.3c1.149,1.57,3.83,2.08,4.31-0.32c-2.609-0.869-6.12-0.459-7.79-3.039
		C372.93,250,374.28,247.82,376.39,247.45z"/>
	<path fill="#1F1A17" d="M397.11,250.41c2.01-4.12,7.33-3.66,11.01-2.57c3.091,2.83,1.101,7.59,2.101,11.23
		c-1.53-0.4-3.97,0.75-4.641-1.28c-1.899,1.351-4.34,1.99-6.55,1.021c-2.229-0.69-2.729-4.25-0.71-5.451
		c2.391-1.069,5.03-1.39,7.5-2.229c-0.99-2.229-3.43-1.22-4.7,0.04C399.77,250.939,398.44,250.68,397.11,250.41 M401.82,254.87
		c-0.77,1,0.061,2.16,1.33,1.819c1.9,0.17,2.37-1.81,2.521-3.27C404.36,253.84,403,254.15,401.82,254.87z"/>
	<path fill="#1F1A17" d="M430.55,247.72c2.33-0.76,5.06-0.85,7.25,0.39c3.59,2.19,3.52,8.341-0.3,10.261
		c-2.761,1.36-6.461,1.17-8.75-1C425.909,254.68,426.93,249.21,430.55,247.72 M432.369,250.311c-1.029,2.09-1.529,5.569,1.57,6.1
		C437.47,255.48,436.28,248.859,432.369,250.311z"/>
	<path fill="#1F1A17" d="M447.59,248.51c0.729-1.88,2.75-1.109,4.22-1.16c-0.35,1.09-0.71,2.17-1.05,3.25
		c-0.7,0.021-2.08,0.07-2.771,0.09c-0.93,2.67-0.81,5.53-0.84,8.32c-1.47-0.02-2.939-0.029-4.399-0.029
		c-0.091-3.86-0.04-7.73-0.021-11.59C444.42,247.33,446.39,246.97,447.59,248.51z"/>
	<path fill="#1F1A17" d="M452.77,250.689c1.4-4.369,7-3.89,10.55-2.97c3.61,2.54,1.29,7.73,2.431,11.39
		c-1.801,0.041-3.5-0.43-5.23-0.75c-1.98,0.57-4.18,1.49-6.15,0.341c-2.609-0.96-2.38-5.3,0.45-5.8c2.05-1.041,5.41-0.221,6.4-2.721
		C458.329,249.391,455.74,251.82,452.77,250.689 M457.11,256.77c2.3,0.301,4.13-0.93,3.97-3.39
		C459.35,254.08,456.539,254.17,457.11,256.77z"/>
	<path fill="#1F1A17" d="M490.159,253.25c-0.399-4.27,4.141-6.85,7.94-5.99c3.76-0.119,5.74,3.7,5.6,7.03
		c-2.939,0-5.88-0.01-8.819-0.01c0.04,1.1,0.68,2.63,2.06,2.26c2.061-0.899,4.25-1.01,6.44-0.54
		C500.48,261.35,489.77,260.15,490.159,253.25 M494.32,251.15c1.2,1.569,3.28,1.17,4.931,0.74
		C498.67,249.22,495.8,249.311,494.32,251.15z"/>
	<path fill="#1F1A17" d="M530.22,249.28c2.189-2.47,6.05-2.5,8.97-1.511c2.64,1.021,3.16,4.041,3.37,6.511
		c-3.14,0.01-6.28-0.03-9.42,0.13c0.729,0.79,1.229,2.57,2.64,2.109c2.061-0.819,4.21-0.979,6.391-0.51
		c-2.091,3.69-7.271,3.98-10.73,2.271C528.57,256.37,528.3,251.95,530.22,249.28 M533.47,252.28c1.35-0.03,2.71-0.021,4.06-0.171
		c1.11-1.209-1.29-2.899-2.41-2.25C533.71,249.84,533.94,251.42,533.47,252.28z"/>
	<path fill="#1F1A17" d="M554.57,247.66c1.521-0.311,3.09-0.29,4.65-0.2c0.649,2.29,1.33,4.56,2.1,6.81
		c1.11-2.16,1.75-4.51,2.45-6.83c1.07-0.02,3.22-0.06,4.3-0.08c-1.229,3.931-3.2,7.57-4.55,11.461c-1.44,0.07-2.87,0.09-4.28,0.08
		C557.829,255.09,556.199,251.38,554.57,247.66z"/>
	<path fill="#1F1A17" d="M578.14,248.97c3.33-3.04,10.06-2.52,11.78,2.091c-1.37,0.17-2.74,0.34-4.101,0.489
		c-1-0.89-2.09-1.89-3.49-1.159c-2.3,1.529-1.569,6.469,1.74,5.899c0.51-0.431,1.53-1.29,2.04-1.729
		c1.34,0.119,2.69,0.26,4.04,0.409c-0.78,2.351-2.84,3.71-5.08,4.46c1.75,1,1.48,3.51-0.49,3.99c-1.779,0.24-4.18,0.78-5.239-1.1
		c1.62-0.23,3.71,0.41,4.819-1.221c-0.819-0.08-2.479-0.24-3.3-0.319c0.19-0.37,0.58-1.12,0.78-1.49
		C576.909,258.6,574.88,252.37,578.14,248.97z"/>
	<path fill="#1F1A17" d="M595.409,247.62c2.141-0.62,4.57-0.69,6.61,0.33c3.8,1.909,3.89,8.229,0.23,10.319
		c-2.95,1.471-6.99,1.33-9.29-1.229C590.39,254.141,591.659,248.82,595.409,247.62 M597.97,256.391
		c3.51-0.211,3.359-5.881,0.16-6.58C595.619,251.01,595.19,255.24,597.97,256.391z"/>
	<path fill="#1F1A17" d="M608.789,247.82c3.211-1.2,7.961-1.23,9.671,2.35c-2.391,0.77-4.551-0.08-6.79-0.67
		c-0.23,0.35-0.69,1.05-0.931,1.391c3,0.879,8.41,0.5,8.061,4.959c-1.851,4.891-10.561,4.641-12.61-0.01
		c1.07-0.109,3.2-0.32,4.26-0.42c1.261,1.59,3.17,1.52,4.771,0.471c-1.97-1.521-4.53-1.541-6.76-2.4
		C606.28,252.23,606.449,248.78,608.789,247.82z"/>
	<path fill="#1F1A17" d="M544.579,247.42c1.021-0.029,3.061-0.1,4.08-0.13l-0.029,1.601c1.319-1.41,3.04-2.131,5.01-1.551
		c-0.25,0.82-0.75,2.471-1.01,3.29c-0.7,0.03-2.11,0.08-2.811,0.11c-0.77,2.67-0.84,5.46-0.8,8.22c-1.49,0.021-2.98,0.05-4.46,0.08
		C544.57,255.16,544.56,251.29,544.579,247.42z"/>
	<path fill="#1F1A17" d="M569.78,247.391c1.49,0.01,2.971,0.029,4.471,0.049c-0.021,3.851-0.04,7.711,0.01,11.561
		c-1.51-0.02-3.01-0.03-4.51-0.04C569.76,255.1,569.76,251.24,569.78,247.391z"/>
	<path fill="#1F1A17" d="M195.84,273.03c0.16-0.2,0.49-0.58,0.65-0.771l-0.19,0.45L195.84,273.03z"/>
	<path fill="#1F1A17" d="M194.91,273.84c0.239-0.199,0.699-0.609,0.93-0.81C195.61,273.23,195.15,273.641,194.91,273.84z"/>
	<path fill="#1F1A17" d="M194.19,274.34c0.181-0.12,0.54-0.37,0.721-0.5C194.73,273.97,194.37,274.22,194.19,274.34z"/>
</g>
<g id="_x23_fef502ff">
	<path fill="#FEF502" d="M429.789,45.7c4.11-2.71,8.36-5.22,12.19-8.34c-5.33,6.87-12.1,12.42-18.49,18.25
		C400.51,76.3,377.55,96.96,354.72,117.8c-7.851,7.1-16.101,13.81-23.23,21.66c-4.25,2.9-7.779,6.69-11.58,10.13
		c31.511-1.1,62.99-2.72,94.49-3.82c-1.55,2.7-4.58,3.85-7.04,5.51c-13.88,8.86-27.79,17.689-41.68,26.54
		c-2.601,1.75-5.87,0.789-8.79,0.89c-0.72,0.71-1.44,1.41-2.16,2.12c-10.57-0.84-20.84,3.3-28.9,9.939
		c-7.609,6.16-14.52,13.73-18.199,22.931c-0.99,2.06-3.341,2.96-4.771,4.69c-0.72,0.729-1.55,1.329-2.42,1.859
		c-50.21,31.811-100.25,63.891-150.54,95.561c-0.76-0.101-2.29-0.301-3.05-0.391c9.36-8.55,18.98-16.79,28.57-25.07
		c6.3-5.279,12.109-11.18,18.77-16.01c0.181-0.12,0.54-0.37,0.721-0.5c0.239-0.199,0.699-0.609,0.93-0.81l0.46-0.32l0.19-0.45
		c7.34-7.199,15.55-13.479,23.109-20.47c4.36-3.3,7.97-7.55,12.62-10.44c0.16-0.119,0.47-0.359,0.63-0.47
		c0.141-0.16,0.42-0.46,0.561-0.61c1.21-1.789,3.02-3.029,4.64-4.41c3.04-2.52,5.63-5.609,9.12-7.539c0.189-0.12,0.56-0.37,0.74-0.5
		c0.229-0.2,0.68-0.601,0.909-0.811l0.431-0.32l0.18-0.439c0.97-1.609,2.6-2.609,3.99-3.82c13.6-11.76,27.12-23.6,40.68-35.399
		c2.95-2.88,6.689-5,8.99-8.511c-2.71-0.119-5.44-0.14-8.061,0.631c-5.079,0.75-10.3-0.08-15.369,0.77
		c-4.771,1.38-9.851-0.1-14.61,1.3c-3.36,0.78-6.89-0.159-10.21,0.88c-2.32,0.86-5.19-0.529-7.16,1.221l-0.08-0.19l-0.24-0.569
		c-9.88,0.949-19.76,1.84-29.68,2.229c5.5-3.899,11.24-7.44,16.85-11.19C299.619,130.97,364.699,88.34,429.789,45.7 M263.3,214.21
		C263.72,214.8,263.72,214.8,263.3,214.21z"/>
	<path fill="#FEF502" d="M347.78,189.84c0.15-0.43,0.45-1.31,0.59-1.75c0.061,0.53,0.17,1.59,0.23,2.12l-0.2,0.021
		c-0.3,0.039-0.88,0.109-1.18,0.14c-6.66,4.1-13,8.78-19.931,12.39c-0.319-2.18,2.24-2.83,3.5-4.029
		c4.511-3.961,9.431-8.011,15.37-9.461L347.78,189.84z"/>
</g>
</svg>
